<svg version="1.1" id="Layer_1" xmlns="http://www.w3.org/2000/svg" xmlns:xlink="http://www.w3.org/1999/xlink" x="0px" y="0px"
	 width="100%" viewBox="0 0 1018 739" enable-background="new 0 0 1018 739" xml:space="preserve">
<path fill="#0C0C1C" opacity="1.000000" stroke="none" 
	d="
M1018.000000,740.000000 
	C679.050354,740.000000 340.100708,740.000000 1.075530,740.000000 
	C1.075530,493.753632 1.075530,247.507233 1.075530,1.000000 
	C339.696014,1.000000 678.392090,1.000000 1017.543457,1.457953 
	C1017.999207,247.943939 1017.999634,493.971954 1018.000000,740.000000 
M732.997437,391.992554 
	C732.997437,391.992554 732.995422,392.056366 733.604187,391.922760 
	C733.863037,391.601898 734.121887,391.281067 734.878235,390.577728 
	C737.265442,388.538788 739.859619,386.695007 742.000488,384.423828 
	C748.082214,377.972046 755.688904,372.212341 759.552551,364.587708 
	C765.537170,352.777405 768.918152,339.647705 773.835388,326.585449 
	C781.264282,310.365784 785.801819,293.590027 788.648987,275.763641 
	C793.165100,247.488083 791.382446,219.306412 791.978455,190.166428 
	C789.998596,177.773544 788.018677,165.380646 786.115417,152.081253 
	C785.794128,149.392349 785.472839,146.703461 785.351685,143.120300 
	C784.969299,134.194290 788.101807,126.350174 792.291077,118.643639 
	C797.980164,108.178101 803.445374,97.568527 808.425781,86.753250 
	C809.998596,83.337830 810.437561,78.982170 810.012207,75.212914 
	C809.732422,72.733292 807.407593,69.427399 805.191467,68.564674 
	C803.482422,67.899353 800.158386,70.029587 798.191895,71.679108 
	C794.798035,74.525826 792.135376,78.256744 788.689270,81.022903 
	C787.138550,82.267647 783.940125,83.057732 782.403381,82.270279 
	C780.881165,81.490295 780.426575,78.494934 779.678284,76.408630 
	C779.419495,75.687057 779.684570,74.777573 779.856445,73.093063 
	C780.145874,70.963371 780.519043,68.841171 780.710388,66.702705 
	C781.573975,57.050903 782.074890,47.458344 775.289368,39.271492 
	C775.289368,39.271492 775.189514,39.084183 775.302429,38.420437 
	C774.854187,37.683289 774.406006,36.946140 773.794617,35.555706 
	C773.099182,34.711163 772.403748,33.866615 771.399780,32.468941 
	C769.423645,30.463747 767.755798,27.905241 765.395325,26.589933 
	C762.271301,24.849161 758.525146,22.924240 755.190125,23.155138 
	C749.617126,23.540987 746.905884,28.631142 746.586914,36.642803 
	C742.107361,44.089741 737.627808,51.536678 732.675110,59.451756 
	C731.775208,60.946285 730.875305,62.440815 729.371216,64.243530 
	C719.078247,75.807869 708.814148,87.402824 693.071472,91.807121 
	C692.144226,92.066536 691.336182,92.756042 690.476318,93.251633 
	C684.436523,96.732635 681.107422,102.410629 678.016235,108.357712 
	C673.630249,116.795715 668.082031,123.956757 658.439209,127.129364 
	C652.813904,128.980148 647.476562,131.706268 641.260498,134.032074 
	C639.787598,134.378906 638.314636,134.725754 636.129028,134.847168 
	C635.641357,135.485275 634.598999,136.353027 634.753174,136.725433 
	C636.065674,139.896057 637.283813,143.175873 639.118164,146.047440 
	C644.964172,155.199356 653.586731,161.150452 662.889526,166.734985 
	C661.358826,170.761795 660.037781,174.883774 658.261108,178.798965 
	C650.459473,195.991226 638.991394,210.771362 627.789185,225.815048 
	C614.548279,243.596527 597.541870,254.820847 575.887146,259.051117 
	C566.631104,260.859314 557.312012,262.344238 547.110168,263.875458 
	C537.342285,264.779816 527.574402,265.684174 517.010376,266.528717 
	C506.303772,267.576202 495.597198,268.623718 484.001099,269.721344 
	C476.273346,270.815765 468.484253,271.591980 460.829987,273.067596 
	C442.035217,276.690857 423.443512,281.174103 407.439545,292.398712 
	C393.369232,302.267120 382.285431,314.933716 373.528503,330.480225 
	C367.715240,341.077179 361.859711,351.651184 356.100128,362.277222 
	C349.854675,373.799622 343.923920,385.416809 332.764465,393.384125 
	C319.748657,402.676788 305.385681,408.795410 290.149292,413.175537 
	C289.419128,413.385468 288.780975,413.915527 287.988464,414.358887 
	C289.223816,415.284668 290.231354,416.039764 292.338745,417.619080 
	C283.161194,421.652435 274.790619,425.331146 266.174561,429.117737 
	C267.402588,430.279297 268.478027,431.296600 269.684631,432.437897 
	C259.390350,436.525421 250.876526,442.388947 242.796814,450.581665 
	C245.419327,450.947662 246.916245,451.156586 249.203781,451.475830 
	C247.961166,452.591431 247.381943,453.105927 246.808929,453.627228 
	C246.070709,454.298889 245.301239,454.940918 244.607452,455.656067 
	C234.686890,465.881836 228.972046,478.138947 226.683716,492.804718 
	C226.528625,493.396362 226.373535,493.987976 226.218460,494.579590 
	C227.777924,494.401062 229.337387,494.222504 231.455933,493.979919 
	C230.559448,496.342133 230.090271,498.677795 228.891479,500.545074 
	C223.928894,508.275146 218.745590,515.863525 213.668503,523.541870 
	C213.668503,523.541870 213.682434,523.583496 213.127304,523.742310 
	C212.796021,524.189758 212.464722,524.637146 211.589554,525.502869 
	C210.447128,526.521973 209.304688,527.541077 208.162247,528.560242 
	C208.420975,529.093140 208.679688,529.626099 208.938400,530.159058 
	C215.958771,527.559570 222.975815,524.951050 230.002838,522.369690 
	C231.145187,521.950012 233.255585,521.166626 233.360779,521.367432 
	C235.292435,525.054626 237.659027,522.352661 238.968079,521.339111 
	C241.925400,519.049316 244.450607,516.175659 247.013641,513.411682 
	C248.711670,511.580475 250.170746,509.527740 251.685730,507.637817 
	C253.315994,510.175964 254.591431,512.161621 256.308655,514.835144 
	C257.568542,512.161743 258.400879,510.395569 259.875732,509.146088 
	C260.198456,511.245758 260.719238,513.336792 260.811401,515.446533 
	C261.358429,527.970032 261.806152,540.497864 262.156860,553.948853 
	C262.059875,560.754333 261.631012,567.576172 261.966339,574.360291 
	C262.257629,580.253418 262.473450,586.437073 264.407623,591.895142 
	C267.306091,600.074341 274.405273,602.826721 282.862823,600.637939 
	C283.722076,600.415649 285.047333,600.244873 285.562164,600.709045 
	C291.138367,605.737000 297.709656,602.696350 303.812500,602.820923 
	C304.648407,602.838013 306.517548,599.310303 306.189117,597.796875 
	C305.743744,595.744995 303.879150,593.791016 302.202118,592.254822 
	C296.574585,587.099915 290.648804,582.267395 285.091064,577.041443 
	C283.601227,575.640564 282.153076,573.275757 282.158661,571.357788 
	C282.188171,561.234375 282.177216,551.062500 283.157562,541.002747 
	C284.333496,528.935791 289.478882,518.757141 300.183380,512.028992 
	C301.075745,511.468109 301.515472,510.186981 303.081512,509.052979 
	C307.483612,507.253967 312.027618,505.737244 316.263885,503.608215 
	C337.531097,492.920135 359.583435,484.253021 382.341766,477.322876 
	C388.653107,475.400970 394.884186,473.215424 401.939240,471.121063 
	C416.737366,466.511993 432.083435,463.278595 445.369537,454.464020 
	C445.879761,455.319519 446.389984,456.175018 446.960663,457.848450 
	C446.686920,459.612213 446.825043,461.580627 446.067932,463.104187 
	C442.863770,469.552002 439.393433,475.867554 435.472260,482.563965 
	C428.138885,489.524261 421.044250,496.760193 413.409241,503.372162 
	C404.675110,510.936066 403.709381,520.467102 410.444061,529.723389 
	C416.180542,537.607788 421.828369,545.783081 425.928741,554.570129 
	C430.381348,564.111877 432.696014,574.626953 436.511871,584.497620 
	C439.788055,592.972290 445.775818,598.575500 455.502228,599.031311 
	C457.304901,599.115845 459.195129,599.436462 460.854980,600.113708 
	C470.068878,603.873474 479.003448,602.037354 488.415253,598.431213 
	C485.178406,595.520142 481.811035,592.760559 478.014130,590.858276 
	C466.291595,584.985107 456.326569,577.471191 450.777161,565.069275 
	C447.124664,556.906677 443.106506,548.907593 439.217621,539.998169 
	C436.504303,530.638184 437.908447,521.972717 443.612701,514.040710 
	C449.032288,506.504639 456.822021,502.179810 465.570129,498.113068 
	C466.070282,497.746643 466.570465,497.380219 466.999969,497.008636 
	C466.999969,497.008636 466.996857,497.079437 467.767456,497.083282 
	C469.785126,496.366241 471.815521,495.682892 473.818451,494.926788 
	C490.620483,488.584106 506.853271,481.133972 521.239990,470.176605 
	C534.891602,459.779114 545.919556,447.548279 549.825439,429.914124 
	C573.219849,431.608521 596.614319,433.302948 620.301086,435.649353 
	C622.922180,443.110077 625.543335,450.570801 628.134277,458.817566 
	C629.799561,465.556458 631.464783,472.295380 633.157104,479.833008 
	C634.087708,484.385193 634.975159,488.946747 635.958984,493.487427 
	C637.393921,500.109741 638.131714,507.013000 640.545105,513.264343 
	C644.592346,523.747620 649.725891,533.811401 654.647766,544.693665 
	C659.831421,559.155273 665.040283,573.607849 670.187317,588.082458 
	C672.514893,594.627991 675.405884,601.289856 682.116089,603.830933 
	C691.145264,607.250244 700.705383,609.267517 710.731384,612.192688 
	C714.311707,613.144653 717.892029,614.096680 722.117676,615.325745 
	C723.767639,615.488525 725.767517,616.336426 727.010071,615.701721 
	C734.460449,611.895630 741.378784,615.786926 748.491150,616.762817 
	C748.984314,616.830444 749.524597,616.969910 749.977844,616.843201 
	C752.084595,616.254150 754.168396,615.583130 756.260437,614.941467 
	C755.458801,612.906860 755.232239,610.184692 753.759277,608.952637 
	C745.992859,602.456421 738.084473,596.097900 729.887146,590.158630 
	C723.033997,585.193298 719.384888,578.770935 718.901062,570.467590 
	C718.465759,562.998962 718.186218,555.521179 717.977051,547.113159 
	C718.643738,517.716858 719.310486,488.320557 720.121643,458.069458 
	C721.410828,435.894287 720.863892,413.382050 732.009399,392.996216 
	C732.009399,392.996216 732.006775,393.056122 732.558655,392.952118 
	C732.725891,392.635803 732.893188,392.319489 732.997437,391.992554 
z"/>
<path fill="#E8EBEF" opacity="1.000000" stroke="none" 
	d="
M1018.500000,740.000000 
	C1017.999634,493.971954 1017.999207,247.943939 1017.999390,1.457962 
	C1018.333313,1.166684 1018.943787,1.315940 1018.955566,1.502811 
	C1019.039001,2.830884 1019.000000,4.166667 1019.000000,5.500000 
	C1019.000000,250.333328 1019.000000,495.166656 1018.500000,740.000000 
z"/>
<path fill="#781D7E" opacity="1.000000" stroke="none" 
	d="
M517.806519,266.588531 
	C527.574402,265.684174 537.342285,264.779816 548.027771,263.850708 
	C573.390320,264.833313 597.713562,263.219635 622.429443,260.350616 
	C640.529785,257.251587 658.183228,254.237946 676.254150,251.173279 
	C691.113770,246.724686 705.555969,242.327133 719.968872,238.276810 
	C719.510010,239.113495 719.171692,239.760086 718.637878,240.069748 
	C697.859741,252.124008 681.316589,268.670349 667.211975,287.935669 
	C660.458801,297.159790 653.147766,305.975494 645.959473,314.841614 
	C645.549988,314.823761 645.270447,314.940491 644.992493,315.024750 
	C644.994080,314.992310 645.058350,315.001434 644.733887,315.112732 
	C643.201111,316.100952 641.929199,316.902924 640.793640,317.865814 
	C615.993042,338.895935 584.463806,339.496094 558.841370,319.540009 
	C540.935730,305.594147 527.399414,288.143402 517.116760,267.948486 
	C517.434875,267.377014 517.620728,266.982758 517.806519,266.588531 
z"/>
<path fill="#FE753E" opacity="1.000000" stroke="none" 
	d="
M786.038818,152.987762 
	C788.018677,165.380646 789.998596,177.773544 791.677002,190.949585 
	C789.916016,205.880234 789.375244,220.199753 786.766479,234.132065 
	C783.448425,251.852509 779.247131,269.505493 773.898010,286.712341 
	C770.488342,297.680542 765.250793,308.380096 759.125061,318.126831 
	C751.842834,329.713776 743.600830,340.989166 734.133728,350.819122 
	C726.564819,358.678131 716.546082,364.180084 707.601929,370.710815 
	C705.094971,372.541382 702.543030,374.310364 700.012451,376.071289 
	C700.013184,376.034973 700.084839,376.046722 699.736938,376.040161 
	C698.590210,376.388672 697.791382,376.743744 697.002441,377.059387 
	C697.012207,377.019958 697.090149,377.042938 696.795471,377.063171 
	C696.002502,377.359741 695.504150,377.636078 694.663452,378.080811 
	C667.776123,385.751343 640.822876,389.769348 613.498657,387.560974 
	C619.461243,386.928162 625.085938,386.459717 630.716064,386.069458 
	C644.333862,385.125610 657.390930,381.786255 669.243713,375.111359 
	C688.051086,364.520020 699.477173,347.958832 704.954041,327.328583 
	C713.505981,295.115356 726.251465,264.744171 743.861572,236.429642 
	C747.703918,230.251724 751.497253,224.043365 755.508850,217.625519 
	C757.765991,214.943100 759.827454,212.484177 762.238953,209.989471 
	C763.874878,208.947632 765.355957,208.113602 766.416626,206.909241 
	C778.436646,193.260422 785.062561,177.501740 785.031799,159.125305 
	C785.028381,157.080032 785.687134,155.033630 786.038818,152.987762 
z"/>
<path fill="#781D7E" opacity="1.000000" stroke="none" 
	d="
M613.163269,387.760925 
	C640.822876,389.769348 667.776123,385.751343 694.966797,378.092896 
	C696.105103,377.638672 696.597595,377.340820 697.090149,377.042938 
	C697.090149,377.042938 697.012207,377.019958 697.347290,377.054596 
	C698.483215,376.741699 699.283997,376.394196 700.084839,376.046692 
	C700.084839,376.046722 700.013184,376.034973 700.403564,376.053711 
	C704.696838,374.716156 708.664978,373.521576 712.491882,371.977051 
	C735.478088,362.699951 756.190063,350.321106 770.461853,329.197571 
	C771.096924,328.257538 772.407349,327.773743 773.403137,327.077423 
	C768.918152,339.647705 765.537170,352.777405 759.552551,364.587708 
	C755.688904,372.212341 748.082214,377.972046 742.000488,384.423828 
	C739.859619,386.695007 737.265442,388.538788 734.334778,390.871155 
	C733.526001,391.461823 733.260742,391.759094 732.995422,392.056366 
	C732.995422,392.056366 732.997437,391.992554 732.775330,392.084351 
	C732.371094,392.469482 732.188904,392.762817 732.006775,393.056122 
	C732.006775,393.056122 732.009399,392.996216 731.676270,392.999237 
	C730.447754,393.426086 729.360779,393.651550 728.685730,394.303497 
	C719.015320,403.643616 709.294617,412.936066 699.818420,422.470917 
	C695.294250,427.023041 691.259949,432.061981 686.736206,436.980103 
	C686.296021,437.385223 686.123352,437.690704 685.979248,437.990234 
	C686.007690,437.984283 685.973999,437.936859 685.513306,437.863281 
	C676.913025,439.131012 669.162476,437.213867 661.313049,434.839935 
	C661.049316,434.485443 660.945374,434.253143 660.810303,433.653137 
	C654.986084,431.427155 649.202515,429.596954 643.446167,427.684753 
	C607.397705,415.709503 573.963440,398.259491 541.388550,378.993774 
	C535.572205,375.553833 529.574951,372.419647 523.484375,369.052246 
	C523.088318,368.797150 522.926025,368.589600 522.871460,368.041931 
	C522.950134,367.549011 522.977966,367.351746 523.222290,366.920929 
	C524.068848,366.721283 524.735840,366.631409 525.323547,366.807037 
	C542.973999,372.081146 560.466614,377.978424 578.314697,382.461792 
	C589.658813,385.311340 601.528992,386.066559 613.163269,387.760925 
z"/>
<path fill="#522ADB" opacity="1.000000" stroke="none" 
	d="
M464.953430,498.322052 
	C456.822021,502.179810 449.032288,506.504639 443.612701,514.040710 
	C437.908447,521.972717 436.504303,530.638184 438.875305,540.335205 
	C433.068420,530.284363 431.316406,518.840759 431.385620,507.501221 
	C431.437103,499.068848 434.370544,490.654053 436.020386,482.231445 
	C439.393433,475.867554 442.863770,469.552002 446.067932,463.104187 
	C446.825043,461.580627 446.686920,459.612213 447.309814,457.328094 
	C448.052338,456.309326 448.702637,455.856934 448.801331,455.305725 
	C451.045319,442.775085 450.514252,430.403046 445.243439,418.697662 
	C435.525146,397.115204 430.419464,374.714355 432.066650,350.603577 
	C433.463379,344.786835 434.806152,339.329193 436.427490,334.071960 
	C444.079834,349.087982 453.941742,362.164154 464.515930,374.814209 
	C485.348145,399.736084 498.916260,427.579498 497.715118,461.265442 
	C495.579681,472.872040 487.139038,479.564789 479.427948,486.703491 
	C475.472412,490.365387 471.152222,493.633392 466.996857,497.079437 
	C466.996857,497.079437 466.999969,497.008636 466.707886,497.054382 
	C465.928345,497.507416 465.440887,497.914734 464.953430,498.322052 
z"/>
<path fill="#1755FB" opacity="1.000000" stroke="none" 
	d="
M436.148926,333.871582 
	C434.806152,339.329193 433.463379,344.786835 431.777039,350.777740 
	C429.825806,353.191315 428.280945,355.129944 426.599731,356.942078 
	C417.978729,366.234436 407.119293,372.201599 395.816742,377.471344 
	C390.087402,380.142578 385.310089,383.646667 383.301331,390.221191 
	C378.857269,398.509308 374.710388,406.725739 370.490234,415.087341 
	C370.066162,413.424927 369.695251,411.970947 369.004822,409.264313 
	C363.480011,420.828430 355.907501,429.163422 346.585144,435.736786 
	C339.428131,440.783356 332.130310,445.884155 323.015503,447.021027 
	C322.999908,447.002869 322.963745,446.971497 322.896118,446.644501 
	C321.507294,446.433441 319.876923,446.090546 318.914612,446.739014 
	C312.163086,451.288666 305.695801,456.271271 298.846588,460.661255 
	C293.096375,464.346802 286.952362,467.417847 279.942902,471.343292 
	C280.803680,467.915222 281.323456,466.015656 281.750244,464.095459 
	C282.146790,462.311371 282.444153,460.505249 282.785187,458.708832 
	C280.988525,459.144043 280.205322,459.897644 279.555939,460.752838 
	C263.528046,481.859467 246.474335,501.997223 224.774002,517.607788 
	C221.397339,520.036865 217.369858,521.561218 213.643341,523.503906 
	C218.745590,515.863525 223.928894,508.275146 228.891479,500.545074 
	C230.090271,498.677795 230.559448,496.342133 231.455933,493.979919 
	C229.337387,494.222504 227.777924,494.401062 226.218460,494.579590 
	C226.373535,493.987976 226.528625,493.396362 227.132874,492.299255 
	C232.319412,481.847229 237.409119,472.126617 244.949356,463.473175 
	C246.346481,465.180847 247.254974,466.291290 248.229950,467.483002 
	C256.354034,452.846039 259.692902,449.078552 265.789886,447.710449 
	C265.999237,449.953705 266.207336,452.183502 266.507050,455.394745 
	C275.627197,448.420227 284.055725,441.974640 292.714508,435.352966 
	C293.200928,439.729889 293.616669,443.471100 294.070282,447.552704 
	C303.504730,444.417694 309.931946,437.997681 316.946167,430.316711 
	C316.652649,434.052429 316.471466,436.358215 316.215851,439.611725 
	C318.571503,438.428253 320.445831,437.966736 321.643555,436.806671 
	C329.235321,429.453979 336.672363,421.941681 344.173920,414.495575 
	C345.403412,413.275146 346.699432,412.121735 347.975830,411.330444 
	C347.371613,414.226013 346.756287,416.728546 345.803192,420.604797 
	C348.265747,419.141541 349.678894,418.474548 350.896973,417.550507 
	C359.867218,410.745728 366.210968,401.627197 370.378174,391.537445 
	C376.386841,376.989380 381.470978,362.005829 386.044006,346.933319 
	C390.759399,331.391663 397.446350,317.418793 411.396667,308.189453 
	C420.529602,302.147217 429.916443,296.430481 440.977173,295.290131 
	C439.888947,297.344849 438.881592,299.045410 438.045502,300.826385 
	C432.996704,311.580750 434.297455,322.713196 436.148926,333.871582 
z"/>
<path fill="#367DFA" opacity="1.000000" stroke="none" 
	d="
M467.382141,497.081360 
	C471.152222,493.633392 475.472412,490.365387 479.427948,486.703491 
	C487.139038,479.564789 495.579681,472.872040 497.968201,461.008301 
	C499.645844,455.184601 501.419708,449.930664 501.867645,444.566040 
	C503.062744,430.252960 498.263763,417.048584 492.999146,404.106995 
	C482.586578,378.510590 474.523590,352.218384 469.342926,325.089294 
	C468.345367,319.865356 468.921295,314.340973 469.061798,309.211914 
	C472.150269,315.765930 474.183228,322.560760 477.893127,328.265015 
	C488.057281,343.893219 503.223724,354.316101 518.390442,365.074371 
	C519.534668,365.772125 520.408997,366.305573 521.377563,367.102539 
	C521.921326,367.689911 522.370911,368.013763 522.820496,368.337585 
	C522.926025,368.589600 523.088318,368.797150 523.630188,369.364807 
	C524.248535,370.168732 524.487183,370.630859 524.847961,370.958405 
	C542.244568,386.755402 550.755005,406.183899 548.947083,429.838531 
	C545.919556,447.548279 534.891602,459.779114 521.239990,470.176605 
	C506.853271,481.133972 490.620483,488.584106 473.818451,494.926788 
	C471.815521,495.682892 469.785126,496.366241 467.382141,497.081360 
z"/>
<path fill="#3B1EC7" opacity="1.000000" stroke="none" 
	d="
M383.598511,390.149475 
	C385.310089,383.646667 390.087402,380.142578 395.816742,377.471344 
	C407.119293,372.201599 417.978729,366.234436 426.599731,356.942078 
	C428.280945,355.129944 429.825806,353.191315 431.723145,351.136841 
	C430.419464,374.714355 435.525146,397.115204 445.243439,418.697662 
	C450.514252,430.403046 451.045319,442.775085 448.801331,455.305725 
	C448.702637,455.856934 448.052338,456.309326 447.279572,456.919128 
	C446.389984,456.175018 445.879761,455.319519 445.140442,453.872986 
	C440.098938,449.603638 435.660370,445.239868 430.405151,442.373383 
	C413.497528,433.151215 395.153076,429.988953 376.007385,430.608856 
	C378.531677,416.848877 381.065094,403.499176 383.598511,390.149475 
z"/>
<path fill="#32B7FB" opacity="1.000000" stroke="none" 
	d="
M468.771362,308.955170 
	C468.921295,314.340973 468.345367,319.865356 469.342926,325.089294 
	C474.523590,352.218384 482.586578,378.510590 492.999146,404.106995 
	C498.263763,417.048584 503.062744,430.252960 501.867645,444.566040 
	C501.419708,449.930664 499.645844,455.184601 498.223450,460.746155 
	C498.916260,427.579498 485.348145,399.736084 464.515930,374.814209 
	C453.941742,362.164154 444.079834,349.087982 436.427490,334.071960 
	C434.297455,322.713196 432.996704,311.580750 438.045502,300.826385 
	C438.881592,299.045410 439.888947,297.344849 441.260345,295.132629 
	C451.615601,281.471283 465.053619,274.380127 481.109894,271.703674 
	C482.445923,271.480988 483.633850,270.369659 484.890594,269.671204 
	C495.597198,268.623718 506.303772,267.576202 517.408447,266.558624 
	C517.620728,266.982758 517.434875,267.377014 516.772217,268.064331 
	C504.556488,271.974030 492.800934,275.619812 482.827301,283.151886 
	C475.234680,288.885834 469.379791,295.821686 468.816528,306.075439 
	C468.596680,306.264099 468.458984,306.384705 468.480743,306.457886 
	C468.544678,306.672943 468.671936,306.869141 468.796631,307.386566 
	C468.803040,308.118652 468.787201,308.536926 468.771362,308.955170 
z"/>
<path fill="#367DFA" opacity="1.000000" stroke="none" 
	d="
M383.301331,390.221191 
	C381.065094,403.499176 378.531677,416.848877 375.843079,430.924255 
	C371.985168,441.023621 368.557404,450.578064 359.574554,456.555725 
	C359.589081,454.255310 360.203918,452.220154 360.542358,450.140015 
	C360.860229,448.185883 360.886108,446.184235 361.131744,443.032257 
	C352.104095,456.566803 343.174713,468.082489 326.865143,471.955780 
	C329.198914,468.143311 331.111389,465.019043 333.023865,461.894806 
	C332.690613,461.625580 332.357330,461.356354 332.024078,461.087128 
	C326.473724,466.374817 320.923401,471.662506 315.085602,477.021759 
	C307.138336,482.750122 299.525208,488.502106 288.376678,490.199921 
	C290.646759,486.747284 292.234009,484.333191 293.821228,481.919098 
	C280.749390,489.155334 268.659210,497.214508 259.233215,508.629395 
	C258.400879,510.395569 257.568542,512.161743 256.308655,514.835144 
	C254.591431,512.161621 253.315994,510.175964 251.685730,507.637817 
	C250.170746,509.527740 248.711670,511.580475 247.013641,513.411682 
	C244.450607,516.175659 241.925400,519.049316 238.968079,521.339111 
	C237.659027,522.352661 235.292435,525.054626 233.360779,521.367432 
	C233.255585,521.166626 231.145187,521.950012 230.002838,522.369690 
	C222.975815,524.951050 215.958771,527.559570 208.938400,530.159058 
	C208.679688,529.626099 208.420975,529.093140 208.162247,528.560242 
	C209.304688,527.541077 210.447128,526.521973 212.159821,525.228943 
	C213.047531,524.497864 213.364975,524.040649 213.682434,523.583496 
	C213.682434,523.583496 213.668503,523.541870 213.655914,523.522888 
	C217.369858,521.561218 221.397339,520.036865 224.774002,517.607788 
	C246.474335,501.997223 263.528046,481.859467 279.555939,460.752838 
	C280.205322,459.897644 280.988525,459.144043 282.785187,458.708832 
	C282.444153,460.505249 282.146790,462.311371 281.750244,464.095459 
	C281.323456,466.015656 280.803680,467.915222 279.942902,471.343292 
	C286.952362,467.417847 293.096375,464.346802 298.846588,460.661255 
	C305.695801,456.271271 312.163086,451.288666 318.914612,446.739014 
	C319.876923,446.090546 321.507294,446.433441 322.780121,446.701904 
	C322.831543,447.070587 322.931305,447.054871 323.031097,447.039185 
	C332.130310,445.884155 339.428131,440.783356 346.585144,435.736786 
	C355.907501,429.163422 363.480011,420.828430 369.004822,409.264313 
	C369.695251,411.970947 370.066162,413.424927 370.490234,415.087341 
	C374.710388,406.725739 378.857269,398.509308 383.301331,390.221191 
z"/>
<path fill="#CC2257" opacity="1.000000" stroke="none" 
	d="
M687.003723,436.880432 
	C691.259949,432.061981 695.294250,427.023041 699.818420,422.470917 
	C709.294617,412.936066 719.015320,403.643616 728.685730,394.303497 
	C729.360779,393.651550 730.447754,393.426086 731.702393,393.014038 
	C720.863892,413.382050 721.410828,435.894287 719.706116,458.555634 
	C718.187256,460.219757 716.847351,461.252838 716.021912,462.600983 
	C712.651245,468.106049 709.302979,473.633209 706.191345,479.287048 
	C696.161255,497.511322 688.195618,516.504272 684.858826,537.214172 
	C684.111694,541.851501 682.934937,546.419678 681.665955,550.764282 
	C679.051575,536.681458 676.727234,522.853943 674.536865,508.649536 
	C673.060181,498.946686 671.449524,489.620789 670.094543,479.956573 
	C672.612854,471.404755 674.403687,463.020538 677.293335,455.033905 
	C679.451599,449.068848 683.028687,443.617157 685.973999,437.936859 
	C685.973999,437.936859 686.007690,437.984283 686.204346,437.856964 
	C686.601868,437.446564 686.802795,437.163513 687.003723,436.880432 
z"/>
<path fill="#32B7FB" opacity="1.000000" stroke="none" 
	d="
M347.964722,410.937347 
	C346.699432,412.121735 345.403412,413.275146 344.173920,414.495575 
	C336.672363,421.941681 329.235321,429.453979 321.643555,436.806671 
	C320.445831,437.966736 318.571503,438.428253 316.215851,439.611725 
	C316.471466,436.358215 316.652649,434.052429 316.946167,430.316711 
	C309.931946,437.997681 303.504730,444.417694 294.070282,447.552704 
	C293.616669,443.471100 293.200928,439.729889 292.714508,435.352966 
	C284.055725,441.974640 275.627197,448.420227 266.507050,455.394745 
	C266.207336,452.183502 265.999237,449.953705 265.789886,447.710449 
	C259.692902,449.078552 256.354034,452.846039 248.229950,467.483002 
	C247.254974,466.291290 246.346481,465.180847 244.949356,463.473175 
	C237.409119,472.126617 232.319412,481.847229 227.288925,491.994873 
	C228.972046,478.138947 234.686890,465.881836 244.607452,455.656067 
	C245.301239,454.940918 246.070709,454.298889 246.808929,453.627228 
	C247.381943,453.105927 247.961166,452.591431 249.203781,451.475830 
	C246.916245,451.156586 245.419327,450.947662 242.796814,450.581665 
	C250.876526,442.388947 259.390350,436.525421 269.684631,432.437897 
	C268.478027,431.296600 267.402588,430.279297 266.174561,429.117737 
	C274.790619,425.331146 283.161194,421.652435 292.338745,417.619080 
	C290.231354,416.039764 289.223816,415.284668 287.988464,414.358887 
	C288.780975,413.915527 289.419128,413.385468 290.149292,413.175537 
	C305.385681,408.795410 319.748657,402.676788 332.764465,393.384125 
	C343.923920,385.416809 349.854675,373.799622 356.100128,362.277222 
	C361.859711,351.651184 367.715240,341.077179 373.993591,330.498718 
	C372.610565,335.795776 370.413330,340.981964 368.987000,346.372101 
	C366.016754,357.596893 363.455719,368.929932 360.724091,380.217926 
	C358.219971,390.565826 354.690552,400.459747 347.924774,409.285492 
	C347.895294,410.079803 347.927429,410.534302 347.979675,410.978485 
	C347.999817,410.968201 347.964722,410.937347 347.964722,410.937347 
M317.509308,429.354919 
	C317.509308,429.354919 317.395294,429.582397 317.395294,429.582397 
	C317.395294,429.582397 317.618347,429.540802 317.509308,429.354919 
z"/>
<path fill="#FD3229" opacity="1.000000" stroke="none" 
	d="
M681.955933,551.019653 
	C682.934937,546.419678 684.111694,541.851501 684.858826,537.214172 
	C688.195618,516.504272 696.161255,497.511322 706.191345,479.287048 
	C709.302979,473.633209 712.651245,468.106049 716.021912,462.600983 
	C716.847351,461.252838 718.187256,460.219757 719.633911,458.983032 
	C719.310486,488.320557 718.643738,517.716858 717.679138,547.852356 
	C712.585022,564.432617 708.077209,580.322937 710.014099,597.178223 
	C710.831360,604.289917 713.229797,610.376892 720.676636,613.123718 
	C721.118408,613.286743 721.215088,614.385376 721.472351,615.048645 
	C717.892029,614.096680 714.311707,613.144653 710.276184,611.722656 
	C703.714111,606.976074 699.351013,601.367615 696.442505,594.481384 
	C693.378235,587.226196 690.000793,580.103210 686.953613,572.567505 
	C685.702759,566.564819 684.258423,560.917236 682.828613,555.016663 
	C682.658813,554.488586 682.474487,554.213440 682.212280,553.577026 
	C682.074890,552.483704 682.015381,551.751648 681.955933,551.019653 
z"/>
<path fill="#511A9C" opacity="1.000000" stroke="none" 
	d="
M315.373047,476.950195 
	C320.923401,471.662506 326.473724,466.374817 332.024078,461.087128 
	C332.357330,461.356354 332.690613,461.625580 333.023865,461.894806 
	C331.111389,465.019043 329.198914,468.143311 326.865143,471.955780 
	C343.174713,468.082489 352.104095,456.566803 361.131744,443.032257 
	C360.886108,446.184235 360.860229,448.185883 360.542358,450.140015 
	C360.203918,452.220154 359.589081,454.255310 359.574554,456.555725 
	C368.557404,450.578064 371.985168,441.023621 375.852173,431.334534 
	C395.153076,429.988953 413.497528,433.151215 430.405151,442.373383 
	C435.660370,445.239868 440.098938,449.603638 444.959625,453.623779 
	C432.083435,463.278595 416.737366,466.511993 401.293518,470.886230 
	C390.153412,471.443970 379.668884,472.422852 369.161926,472.976501 
	C358.756714,473.524811 348.309570,473.354858 337.917480,474.048828 
	C330.371704,474.552643 322.885712,475.950775 315.373047,476.950195 
z"/>
<path fill="#522ADB" opacity="1.000000" stroke="none" 
	d="
M315.085602,477.021729 
	C322.885712,475.950775 330.371704,474.552643 337.917480,474.048828 
	C348.309570,473.354858 358.756714,473.524811 369.161926,472.976501 
	C379.668884,472.422852 390.153412,471.443970 400.899933,470.901123 
	C394.884186,473.215424 388.653107,475.400970 382.341766,477.322876 
	C359.583435,484.253021 337.531097,492.920135 316.263885,503.608215 
	C312.027618,505.737244 307.483612,507.253967 302.418365,509.161194 
	C282.762024,518.589050 269.291870,532.890564 262.287292,553.024231 
	C261.806152,540.497864 261.358429,527.970032 260.811401,515.446533 
	C260.719238,513.336792 260.198456,511.245758 259.554504,508.887756 
	C268.659210,497.214508 280.749390,489.155334 293.821228,481.919098 
	C292.234009,484.333191 290.646759,486.747284 288.376678,490.199921 
	C299.525208,488.502106 307.138336,482.750122 315.085602,477.021729 
z"/>
<path fill="#511A9C" opacity="1.000000" stroke="none" 
	d="
M549.386230,429.876343 
	C550.755005,406.183899 542.244568,386.755402 524.847961,370.958405 
	C524.487183,370.630859 524.248535,370.168732 523.807129,369.456848 
	C529.574951,372.419647 535.572205,375.553833 541.388550,378.993774 
	C573.963440,398.259491 607.397705,415.709503 643.446167,427.684753 
	C649.202515,429.596954 654.986084,431.427155 660.357178,433.649170 
	C646.641113,434.334534 633.324890,434.665955 620.008728,434.997375 
	C596.614319,433.302948 573.219849,431.608521 549.386230,429.876343 
z"/>
<path fill="#367DFA" opacity="1.000000" stroke="none" 
	d="
M347.986389,408.945648 
	C354.690552,400.459747 358.219971,390.565826 360.724091,380.217926 
	C363.455719,368.929932 366.016754,357.596893 368.987000,346.372101 
	C370.413330,340.981964 372.610565,335.795776 374.251892,330.282715 
	C382.285431,314.933716 393.369232,302.267120 407.439545,292.398712 
	C423.443512,281.174103 442.035217,276.690857 460.829987,273.067596 
	C468.484253,271.591980 476.273346,270.815765 484.445862,269.696289 
	C483.633850,270.369659 482.445923,271.480988 481.109894,271.703674 
	C465.053619,274.380127 451.615601,281.471283 441.420349,294.815613 
	C429.916443,296.430481 420.529602,302.147217 411.396667,308.189453 
	C397.446350,317.418793 390.759399,331.391663 386.044006,346.933319 
	C381.470978,362.005829 376.386841,376.989380 370.378174,391.537445 
	C366.210968,401.627197 359.867218,410.745728 350.896973,417.550507 
	C349.678894,418.474548 348.265747,419.141541 345.803192,420.604797 
	C346.756287,416.728546 347.371613,414.226013 347.975830,411.330444 
	C347.964722,410.937347 347.999817,410.968201 348.200806,410.830994 
	C348.263336,410.111053 348.124847,409.528351 347.986389,408.945648 
z"/>
<path fill="#357CF7" opacity="1.000000" stroke="none" 
	d="
M435.746307,482.397705 
	C434.370544,490.654053 431.437103,499.068848 431.385620,507.501221 
	C431.316406,518.840759 433.068420,530.284363 438.892548,540.753784 
	C443.106506,548.907593 447.124664,556.906677 450.777161,565.069275 
	C456.326569,577.471191 466.291595,584.985107 478.014130,590.858276 
	C481.811035,592.760559 485.178406,595.520142 488.415253,598.431213 
	C479.003448,602.037354 470.068878,603.873474 460.854980,600.113708 
	C459.195129,599.436462 457.304901,599.115845 455.502228,599.031311 
	C445.775818,598.575500 439.788055,592.972290 436.511871,584.497620 
	C432.696014,574.626953 430.381348,564.111877 425.928741,554.570129 
	C421.828369,545.783081 416.180542,537.607788 410.444061,529.723389 
	C403.709381,520.467102 404.675110,510.936066 413.409241,503.372162 
	C421.044250,496.760193 428.138885,489.524261 435.746307,482.397705 
z"/>
<path fill="#FC9936" opacity="1.000000" stroke="none" 
	d="
M771.708313,33.022079 
	C772.403748,33.866615 773.099182,34.711163 773.911133,36.209797 
	C774.414978,37.603985 774.802246,38.344082 775.189514,39.084179 
	C775.189514,39.084183 775.289368,39.271492 775.223389,39.775337 
	C778.561768,50.822605 776.810425,60.857491 772.676392,70.872543 
	C769.385010,78.846077 766.759094,87.094307 763.497803,95.246994 
	C762.426270,96.865005 761.359558,98.387733 761.015991,100.059090 
	C758.218872,113.668350 755.557068,127.305420 752.620361,140.605499 
	C751.949280,128.658157 750.211731,117.264351 746.030701,106.367363 
	C743.962219,100.976418 741.515137,95.730247 739.220947,90.426483 
	C735.606750,82.071022 731.985046,73.756256 733.894226,64.226776 
	C734.221252,62.594387 733.425415,60.737041 733.148315,58.983620 
	C737.627808,51.536678 742.107361,44.089741 747.033752,36.156063 
	C749.373169,35.570538 751.653931,34.748959 753.081543,35.515816 
	C756.604858,37.408398 759.426270,37.099419 762.880371,35.219299 
	C765.458008,33.816269 768.739990,33.707314 771.708313,33.022079 
z"/>
<path fill="#FD3229" opacity="1.000000" stroke="none" 
	d="
M621.982544,260.436035 
	C597.713562,263.219635 573.390320,264.833313 548.483459,263.901031 
	C557.312012,262.344238 566.631104,260.859314 575.887146,259.051117 
	C597.541870,254.820847 614.548279,243.596527 627.789185,225.815048 
	C638.991394,210.771362 650.459473,195.991226 658.261108,178.798965 
	C660.037781,174.883774 661.358826,170.761795 663.274048,166.377167 
	C664.046143,166.098022 664.433777,166.176697 664.873962,166.698914 
	C664.283691,179.066284 664.513367,191.117584 662.794250,202.884171 
	C660.192505,220.691956 653.342163,236.950790 639.319702,249.028641 
	C634.121765,253.505753 627.794678,256.671967 621.982544,260.436035 
z"/>
<path fill="#522ADB" opacity="1.000000" stroke="none" 
	d="
M682.814087,555.269592 
	C684.258423,560.917236 685.702759,566.564819 686.693298,572.372498 
	C684.761719,569.953857 683.513489,567.206604 681.765747,564.826050 
	C674.712280,555.219055 666.623291,546.889465 654.402283,544.051758 
	C649.725891,533.811401 644.592346,523.747620 640.545105,513.264343 
	C638.131714,507.013000 637.393921,500.109741 635.958984,493.487427 
	C634.975159,488.946747 634.087708,484.385193 633.571533,479.419250 
	C647.331421,479.559326 658.421143,484.644714 666.297913,495.652710 
	C669.322449,499.879608 671.719788,504.555267 674.402832,509.026459 
	C676.727234,522.853943 679.051575,536.681458 681.665894,550.764282 
	C682.015381,551.751648 682.074890,552.483704 682.148804,553.840088 
	C682.380188,554.732849 682.597168,555.001221 682.814087,555.269592 
z"/>
<path fill="#FE753E" opacity="1.000000" stroke="none" 
	d="
M732.911743,59.217690 
	C733.425415,60.737041 734.221252,62.594387 733.894226,64.226776 
	C731.985046,73.756256 735.606750,82.071022 739.220947,90.426483 
	C741.515137,95.730247 743.962219,100.976418 746.030701,106.367363 
	C750.211731,117.264351 751.949280,128.658157 752.656250,141.030273 
	C751.625183,150.443787 750.950317,159.258728 748.857422,167.723038 
	C746.510437,177.215057 742.868774,186.383224 735.002441,192.622406 
	C735.330750,190.081268 735.896912,187.976425 735.979858,185.852722 
	C736.216797,179.783615 737.662659,173.320480 736.118347,167.703690 
	C730.967957,148.971222 724.717896,130.541061 718.904175,111.584122 
	C718.916199,109.803467 718.913269,108.433769 719.030151,106.736115 
	C724.448730,100.809875 726.459778,94.586388 722.942444,86.955040 
	C725.060791,83.430046 727.794006,80.452171 728.786987,76.977058 
	C729.965271,72.853317 729.645752,68.301590 729.975342,63.935341 
	C730.875305,62.440815 731.775208,60.946285 732.911743,59.217690 
z"/>
<path fill="#F8BB31" opacity="1.000000" stroke="none" 
	d="
M718.910339,107.064064 
	C718.913269,108.433769 718.916199,109.803467 718.624512,111.761459 
	C717.909180,112.856644 717.392517,113.310928 717.081726,113.878059 
	C706.694702,132.834351 690.984375,142.342438 669.200806,140.612610 
	C670.165344,137.199951 671.046875,134.130249 671.903320,130.748047 
	C670.412537,129.355560 668.946899,128.275589 667.458679,127.178963 
	C659.409058,129.348679 650.709412,131.693634 642.009705,134.038574 
	C647.476562,131.706268 652.813904,128.980148 658.439209,127.129364 
	C668.082031,123.956757 673.630249,116.795715 678.016235,108.357712 
	C681.107422,102.410629 684.436523,96.732635 690.476318,93.251633 
	C691.336182,92.756042 692.144226,92.066536 693.071472,91.807121 
	C708.814148,87.402824 719.078247,75.807869 729.673279,64.089432 
	C729.645752,68.301590 729.965271,72.853317 728.786987,76.977058 
	C727.794006,80.452171 725.060791,83.430046 722.625977,86.977310 
	C714.393616,93.679840 713.407654,99.679321 718.910339,107.064064 
z"/>
<path fill="#FC9936" opacity="1.000000" stroke="none" 
	d="
M773.619263,326.831421 
	C772.407349,327.773743 771.096924,328.257538 770.461853,329.197571 
	C756.190063,350.321106 735.478088,362.699951 712.491882,371.977051 
	C708.664978,373.521576 704.696838,374.716156 700.402832,376.090027 
	C702.543030,374.310364 705.094971,372.541382 707.601929,370.710815 
	C716.546082,364.180084 726.564819,358.678131 734.133728,350.819122 
	C743.600830,340.989166 751.842834,329.713776 759.125061,318.126831 
	C765.250793,308.380096 770.488342,297.680542 773.898010,286.712341 
	C779.247131,269.505493 783.448425,251.852509 786.766479,234.132065 
	C789.375244,220.199753 789.916016,205.880234 791.604370,191.399521 
	C791.382446,219.306412 793.165100,247.488083 788.648987,275.763641 
	C785.801819,293.590027 781.264282,310.365784 773.619263,326.831421 
z"/>
<path fill="#357CF7" opacity="1.000000" stroke="none" 
	d="
M262.222076,553.486572 
	C269.291870,532.890564 282.762024,518.589050 301.960358,509.254944 
	C301.515472,510.186981 301.075745,511.468109 300.183380,512.028992 
	C289.478882,518.757141 284.333496,528.935791 283.157562,541.002747 
	C282.177216,551.062500 282.188171,561.234375 282.158661,571.357788 
	C282.153076,573.275757 283.601227,575.640564 285.091064,577.041443 
	C290.648804,582.267395 296.574585,587.099915 302.202118,592.254822 
	C303.879150,593.791016 305.743744,595.744995 306.189117,597.796875 
	C306.517548,599.310303 304.648407,602.838013 303.812500,602.820923 
	C297.709656,602.696350 291.138367,605.737000 285.562164,600.709045 
	C285.047333,600.244873 283.722076,600.415649 282.862823,600.637939 
	C274.405273,602.826721 267.306091,600.074341 264.407623,591.895142 
	C262.473450,586.437073 262.257629,580.253418 261.966339,574.360291 
	C261.631012,567.576172 262.059875,560.754333 262.222076,553.486572 
z"/>
<path fill="#F8BB31" opacity="1.000000" stroke="none" 
	d="
M763.837769,95.220596 
	C766.759094,87.094307 769.385010,78.846077 772.676392,70.872543 
	C776.810425,60.857491 778.561768,50.822605 775.139343,39.840176 
	C782.074890,47.458344 781.573975,57.050903 780.710388,66.702705 
	C780.519043,68.841171 780.145874,70.963371 779.393311,73.565704 
	C778.282288,75.696411 776.964478,77.407112 777.089966,79.004379 
	C778.357910,95.138618 779.663818,111.275772 781.407410,127.363510 
	C782.016479,132.983109 783.867676,138.468094 785.151611,144.014557 
	C785.472839,146.703461 785.794128,149.392349 786.077148,152.534515 
	C785.687134,155.033630 785.028381,157.080032 785.031799,159.125305 
	C785.062561,177.501740 778.436646,193.260422 766.416626,206.909241 
	C765.355957,208.113602 763.874878,208.947632 762.335022,209.643890 
	C769.362427,198.415558 772.408813,185.985535 771.615967,173.319321 
	C770.750732,159.496643 767.962891,145.755295 765.423767,132.087997 
	C763.144531,119.820419 760.026550,107.703201 763.837769,95.220596 
z"/>
<path fill="#FC9936" opacity="1.000000" stroke="none" 
	d="
M785.251648,143.567413 
	C783.867676,138.468094 782.016479,132.983109 781.407410,127.363510 
	C779.663818,111.275772 778.357910,95.138618 777.089966,79.004379 
	C776.964478,77.407112 778.282288,75.696411 779.320251,73.996132 
	C779.684570,74.777573 779.419495,75.687057 779.678284,76.408630 
	C780.426575,78.494934 780.881165,81.490295 782.403381,82.270279 
	C783.940125,83.057732 787.138550,82.267647 788.689270,81.022903 
	C792.135376,78.256744 794.798035,74.525826 798.191895,71.679108 
	C800.158386,70.029587 803.482422,67.899353 805.191467,68.564674 
	C807.407593,69.427399 809.732422,72.733292 810.012207,75.212914 
	C810.437561,78.982170 809.998596,83.337830 808.425781,86.753250 
	C803.445374,97.568527 797.980164,108.178101 792.291077,118.643639 
	C788.101807,126.350174 784.969299,134.194290 785.251648,143.567413 
z"/>
<path fill="#511A9C" opacity="1.000000" stroke="none" 
	d="
M674.536865,508.649536 
	C671.719788,504.555267 669.322449,499.879608 666.297913,495.652710 
	C658.421143,484.644714 647.331421,479.559326 633.558044,479.019897 
	C631.464783,472.295380 629.799561,465.556458 628.478638,458.362640 
	C630.109314,456.885651 631.372253,455.832520 632.685425,454.846283 
	C644.009827,446.341400 652.125671,444.764954 661.942688,456.443665 
	C663.059021,457.771667 664.501831,458.825287 665.903748,460.414307 
	C667.289124,467.313293 668.563965,473.804077 669.838867,480.294891 
	C671.449524,489.620789 673.060181,498.946686 674.536865,508.649536 
z"/>
<path fill="#357CF7" opacity="1.000000" stroke="none" 
	d="
M654.525024,544.372681 
	C666.623291,546.889465 674.712280,555.219055 681.765747,564.826050 
	C683.513489,567.206604 684.761719,569.953857 686.499878,572.727539 
	C690.000793,580.103210 693.378235,587.226196 696.442505,594.481384 
	C699.351013,601.367615 703.714111,606.976074 709.929321,611.569580 
	C700.705383,609.267517 691.145264,607.250244 682.116089,603.830933 
	C675.405884,601.289856 672.514893,594.627991 670.187317,588.082458 
	C665.040283,573.607849 659.831421,559.155273 654.525024,544.372681 
z"/>
<path fill="#FE753E" opacity="1.000000" stroke="none" 
	d="
M721.795044,615.187195 
	C721.215088,614.385376 721.118408,613.286743 720.676636,613.123718 
	C713.229797,610.376892 710.831360,604.289917 710.014099,597.178223 
	C708.077209,580.322937 712.585022,564.432617 717.609619,548.319458 
	C718.186218,555.521179 718.465759,562.998962 718.901062,570.467590 
	C719.384888,578.770935 723.033997,585.193298 729.887146,590.158630 
	C738.084473,596.097900 745.992859,602.456421 753.759277,608.952637 
	C755.232239,610.184692 755.458801,612.906860 756.260437,614.941467 
	C754.168396,615.583130 752.084595,616.254150 749.977844,616.843201 
	C749.524597,616.969910 748.984314,616.830444 748.491150,616.762817 
	C741.378784,615.786926 734.460449,611.895630 727.010071,615.701721 
	C725.767517,616.336426 723.767639,615.488525 721.795044,615.187195 
z"/>
<path fill="#3E0F87" opacity="1.000000" stroke="none" 
	d="
M665.793213,460.006134 
	C664.501831,458.825287 663.059021,457.771667 661.942688,456.443665 
	C652.125671,444.764954 644.009827,446.341400 632.685425,454.846283 
	C631.372253,455.832520 630.109314,456.885651 628.493774,457.969604 
	C625.543335,450.570801 622.922180,443.110077 620.154907,435.323364 
	C633.324890,434.665955 646.641113,434.334534 660.410400,434.007019 
	C660.945374,434.253143 661.049316,434.485443 661.416748,435.272247 
	C663.036499,443.893127 664.414856,451.949646 665.793213,460.006134 
z"/>
<path fill="#F8BB31" opacity="1.000000" stroke="none" 
	d="
M664.821411,166.255371 
	C664.433777,166.176697 664.046143,166.098022 663.361816,166.017410 
	C653.586731,161.150452 644.964172,155.199356 639.118164,146.047440 
	C637.283813,143.175873 636.065674,139.896057 634.753174,136.725433 
	C634.598999,136.353027 635.641357,135.485275 636.585571,135.290390 
	C639.557678,137.494217 642.073120,139.254837 644.861450,141.298798 
	C653.276611,145.698151 661.992859,145.193268 671.059082,144.887970 
	C672.563171,147.323547 673.708740,149.629181 674.872314,152.378433 
	C675.171448,163.237747 673.421143,165.572952 664.821411,166.255371 
z"/>
<path fill="#FE753E" opacity="1.000000" stroke="none" 
	d="
M644.588623,141.015457 
	C642.073120,139.254837 639.557678,137.494217 636.941956,135.403107 
	C638.314636,134.725754 639.787598,134.378906 641.635132,134.035324 
	C650.709412,131.693634 659.409058,129.348679 667.458679,127.178963 
	C668.946899,128.275589 670.412537,129.355560 671.612915,130.897736 
	C663.975159,138.866180 654.791748,141.353790 644.588623,141.015457 
z"/>
<path fill="#FD3229" opacity="1.000000" stroke="none" 
	d="
M771.554077,32.745514 
	C768.739990,33.707314 765.458008,33.816269 762.880371,35.219299 
	C759.426270,37.099419 756.604858,37.408398 753.081543,35.515816 
	C751.653931,34.748959 749.373169,35.570538 747.226562,35.816849 
	C746.905884,28.631142 749.617126,23.540987 755.190125,23.155138 
	C758.525146,22.924240 762.271301,24.849161 765.395325,26.589933 
	C767.755798,27.905241 769.423645,30.463747 771.554077,32.745514 
z"/>
<path fill="#F8BB31" opacity="1.000000" stroke="none" 
	d="
M775.245972,38.752304 
	C774.802246,38.344082 774.414978,37.603985 773.992737,36.536438 
	C774.406006,36.946140 774.854187,37.683289 775.245972,38.752304 
z"/>
<path fill="#1755FB" opacity="1.000000" stroke="none" 
	d="
M213.404877,523.662903 
	C213.364975,524.040649 213.047531,524.497864 212.431763,525.019775 
	C212.464722,524.637146 212.796021,524.189758 213.404877,523.662903 
z"/>
<path fill="#367DFA" opacity="1.000000" stroke="none" 
	d="
M465.261780,498.217560 
	C465.440887,497.914734 465.928345,497.507416 466.743225,497.056946 
	C466.570465,497.380219 466.070282,497.746643 465.261780,498.217560 
z"/>
<path fill="#CC2257" opacity="1.000000" stroke="none" 
	d="
M733.299805,391.989563 
	C733.260742,391.759094 733.526001,391.461823 734.086060,391.062378 
	C734.121887,391.281067 733.863037,391.601898 733.299805,391.989563 
z"/>
<path fill="#CC2257" opacity="1.000000" stroke="none" 
	d="
M732.282715,393.004120 
	C732.188904,392.762817 732.371094,392.469482 732.806824,392.089661 
	C732.893188,392.319489 732.725891,392.635803 732.282715,393.004120 
z"/>
<path fill="#CC2257" opacity="1.000000" stroke="none" 
	d="
M521.283325,366.838989 
	C520.408997,366.305573 519.534668,365.772125 518.668213,364.794342 
	C520.651306,364.258911 522.629883,364.043854 524.601196,364.097443 
	C535.350403,364.389648 546.140442,365.526154 556.837952,364.939758 
	C590.843262,363.075897 619.333313,349.909576 640.209045,322.196045 
	C641.946716,319.889160 643.447510,317.403839 645.058350,315.001404 
	C645.058350,315.001434 644.994080,314.992310 645.275818,315.120361 
	C645.734863,315.157654 645.912109,315.066895 646.089417,314.976166 
	C653.147766,305.975494 660.458801,297.159790 667.211975,287.935669 
	C681.316589,268.670349 697.859741,252.124008 718.637878,240.069748 
	C719.171692,239.760086 719.510010,239.113495 719.973511,238.305786 
	C720.007507,237.987534 719.948792,237.992386 720.264221,237.988327 
	C721.058533,237.639282 721.537476,237.294296 722.011963,236.979599 
	C722.007568,237.009888 721.948853,236.992477 722.263855,236.987762 
	C723.059753,236.637238 723.540710,236.291412 724.015503,235.978485 
	C724.009399,236.011368 723.943909,235.997757 724.251953,235.973358 
	C725.049072,235.629425 725.538147,235.309891 726.309570,234.798920 
	C735.260376,229.414505 743.923462,224.212494 752.605835,219.042953 
	C753.447021,218.542099 754.407837,218.242188 755.313110,217.849014 
	C751.497253,224.043365 747.703918,230.251724 743.861572,236.429642 
	C726.251465,264.744171 713.505981,295.115356 704.954041,327.328583 
	C699.477173,347.958832 688.051086,364.520020 669.243713,375.111359 
	C657.390930,381.786255 644.333862,385.125610 630.716064,386.069458 
	C625.085938,386.459717 619.461243,386.928162 613.498657,387.561005 
	C601.528992,386.066559 589.658813,385.311340 578.314697,382.461792 
	C560.466614,377.978424 542.973999,372.081146 525.323547,366.807037 
	C524.735840,366.631409 524.068848,366.721283 522.935486,366.863159 
	C522.049255,366.972290 521.666260,366.905640 521.283325,366.838989 
z"/>
<path fill="#522ADB" opacity="1.000000" stroke="none" 
	d="
M644.733887,315.112732 
	C643.447510,317.403839 641.946716,319.889160 640.209045,322.196045 
	C619.333313,349.909576 590.843262,363.075897 556.837952,364.939758 
	C546.140442,365.526154 535.350403,364.389648 524.601196,364.097443 
	C522.629883,364.043854 520.651306,364.258911 518.398315,364.630005 
	C503.223724,354.316101 488.057281,343.893219 477.893127,328.265015 
	C474.183228,322.560760 472.150269,315.765930 469.061798,309.211914 
	C468.787201,308.536926 468.803040,308.118652 468.882446,307.121155 
	C468.954529,306.356506 468.963013,306.171082 468.971497,305.985687 
	C469.379791,295.821686 475.234680,288.885834 482.827301,283.151886 
	C492.800934,275.619812 504.556488,271.974030 516.639893,268.241577 
	C527.399414,288.143402 540.935730,305.594147 558.841370,319.540009 
	C584.463806,339.496094 615.993042,338.895935 640.793640,317.865814 
	C641.929199,316.902924 643.201111,316.100952 644.733887,315.112732 
z"/>
<path fill="#FD3229" opacity="1.000000" stroke="none" 
	d="
M755.508850,217.625519 
	C754.407837,218.242188 753.447021,218.542099 752.605835,219.042953 
	C743.923462,224.212494 735.260376,229.414505 726.005249,234.830139 
	C724.927002,235.367783 724.435425,235.682770 723.943909,235.997742 
	C723.943909,235.997757 724.009399,236.011368 723.707642,235.995331 
	C722.920227,236.317032 722.434509,236.654755 721.948853,236.992477 
	C721.948853,236.992477 722.007568,237.009888 721.704834,236.995453 
	C720.917603,237.318115 720.433167,237.655243 719.948792,237.992371 
	C719.948792,237.992386 720.007507,237.987534 720.002869,237.958557 
	C705.555969,242.327133 691.113770,246.724686 676.412354,250.841919 
	C676.843384,249.856506 677.462524,249.059784 678.234741,248.460281 
	C687.424377,241.325974 693.687012,232.355286 696.558716,220.922333 
	C699.018311,211.129959 697.623718,201.559952 696.281006,192.105606 
	C697.136353,192.883652 697.750366,193.443970 698.265564,194.083862 
	C709.257812,207.736572 724.626465,207.308182 735.019653,193.050079 
	C742.868774,186.383224 746.510437,177.215057 748.857422,167.723038 
	C750.950317,159.258728 751.625183,150.443787 752.889893,141.358795 
	C755.557068,127.305420 758.218872,113.668350 761.015991,100.059090 
	C761.359558,98.387733 762.426270,96.865005 763.497803,95.246994 
	C760.026550,107.703201 763.144531,119.820419 765.423767,132.087997 
	C767.962891,145.755295 770.750732,159.496643 771.615967,173.319321 
	C772.408813,185.985535 769.362427,198.415558 761.984924,209.679688 
	C759.827454,212.484177 757.765991,214.943100 755.508850,217.625519 
z"/>
<path fill="#FE753E" opacity="1.000000" stroke="none" 
	d="
M695.993652,191.924927 
	C697.623718,201.559952 699.018311,211.129959 696.558716,220.922333 
	C693.687012,232.355286 687.424377,241.325974 678.234741,248.460281 
	C677.462524,249.059784 676.843384,249.856506 675.994934,250.892960 
	C658.183228,254.237946 640.529785,257.251587 622.429443,260.350647 
	C627.794678,256.671967 634.121765,253.505753 639.319702,249.028641 
	C653.342163,236.950790 660.192505,220.691956 662.794250,202.884171 
	C664.513367,191.117584 664.283691,179.066284 664.873962,166.698914 
	C673.421143,165.572952 675.171448,163.237747 675.153931,152.587463 
	C682.276306,165.543579 689.134949,178.734253 695.993652,191.924927 
z"/>
<path fill="#522ADB" opacity="1.000000" stroke="none" 
	d="
M645.959473,314.841614 
	C645.912109,315.066895 645.734863,315.157654 645.274231,315.152802 
	C645.270447,314.940491 645.549988,314.823761 645.959473,314.841614 
z"/>
<path fill="#FC9936" opacity="1.000000" stroke="none" 
	d="
M699.736938,376.040131 
	C699.283997,376.394196 698.483215,376.741699 697.337524,377.094025 
	C697.791382,376.743744 698.590210,376.388672 699.736938,376.040131 
z"/>
<path fill="#FC9936" opacity="1.000000" stroke="none" 
	d="
M696.795471,377.063171 
	C696.597595,377.340820 696.105103,377.638672 695.309204,377.924469 
	C695.504150,377.636078 696.002502,377.359741 696.795471,377.063171 
z"/>
<path fill="#FD3229" opacity="1.000000" stroke="none" 
	d="
M665.903748,460.414307 
	C664.414856,451.949646 663.036499,443.893127 661.554443,435.404327 
	C669.162476,437.213867 676.913025,439.131012 685.513306,437.863281 
	C683.028687,443.617157 679.451599,449.068848 677.293335,455.033905 
	C674.403687,463.020538 672.612854,471.404755 670.094482,479.956573 
	C668.563965,473.804077 667.289124,467.313293 665.903748,460.414307 
z"/>
<path fill="#511A9C" opacity="1.000000" stroke="none" 
	d="
M521.377563,367.102539 
	C521.666260,366.905640 522.049255,366.972290 522.718994,367.096680 
	C522.977966,367.351746 522.950134,367.549011 522.871460,368.041931 
	C522.370911,368.013763 521.921326,367.689911 521.377563,367.102539 
z"/>
<path fill="#FD3229" opacity="1.000000" stroke="none" 
	d="
M686.736206,436.980103 
	C686.802795,437.163513 686.601868,437.446564 686.175842,437.862915 
	C686.123352,437.690704 686.296021,437.385223 686.736206,436.980103 
z"/>
<path fill="#367DFA" opacity="1.000000" stroke="none" 
	d="
M468.816528,306.075439 
	C468.963013,306.171082 468.954529,306.356506 468.860199,306.807312 
	C468.671936,306.869141 468.544678,306.672943 468.480743,306.457886 
	C468.458984,306.384705 468.596680,306.264099 468.816528,306.075439 
z"/>
<path fill="#1755FB" opacity="1.000000" stroke="none" 
	d="
M323.015503,447.021027 
	C322.931305,447.054871 322.831543,447.070587 322.847748,447.028900 
	C322.963745,446.971497 322.999908,447.002869 323.015503,447.021027 
z"/>
<path fill="#1755FB" opacity="1.000000" stroke="none" 
	d="
M347.924774,409.285492 
	C348.124847,409.528351 348.263336,410.111053 348.180664,410.841248 
	C347.927429,410.534302 347.895294,410.079803 347.924774,409.285492 
z"/>
<path fill="#1755FB" opacity="1.000000" stroke="none" 
	d="
M317.563843,429.447876 
	C317.618347,429.540802 317.395294,429.582397 317.395294,429.582397 
	C317.395294,429.582397 317.509308,429.354919 317.563843,429.447876 
z"/>
<path fill="#CC2257" opacity="1.000000" stroke="none" 
	d="
M682.828613,555.016663 
	C682.597168,555.001221 682.380188,554.732849 682.226746,554.201416 
	C682.474487,554.213440 682.658813,554.488586 682.828613,555.016663 
z"/>
<path fill="#FC9936" opacity="1.000000" stroke="none" 
	d="
M696.281006,192.105606 
	C689.134949,178.734253 682.276306,165.543579 675.135986,152.143860 
	C673.708740,149.629181 672.563171,147.323547 671.110107,144.591003 
	C670.241028,143.094559 669.679443,142.025055 669.117859,140.955551 
	C690.984375,142.342438 706.694702,132.834351 717.081726,113.878059 
	C717.392517,113.310928 717.909180,112.856644 718.609558,112.172401 
	C724.717896,130.541061 730.967957,148.971222 736.118347,167.703690 
	C737.662659,173.320480 736.216797,179.783615 735.979858,185.852722 
	C735.896912,187.976425 735.330750,190.081268 735.002441,192.622406 
	C724.626465,207.308182 709.257812,207.736572 698.265564,194.083862 
	C697.750366,193.443970 697.136353,192.883652 696.281006,192.105606 
z"/>
<path fill="#781D7E" opacity="1.000000" stroke="none" 
	d="
M719.030151,106.736115 
	C713.407654,99.679321 714.393616,93.679840 722.470459,87.304321 
	C726.459778,94.586388 724.448730,100.809875 719.030151,106.736115 
z"/>
<path fill="#FD3229" opacity="1.000000" stroke="none" 
	d="
M669.200806,140.612610 
	C669.679443,142.025055 670.241028,143.094559 670.751587,144.461044 
	C661.992859,145.193268 653.276611,145.698151 644.861450,141.298798 
	C654.791748,141.353790 663.975159,138.866180 671.638062,131.210266 
	C671.046875,134.130249 670.165344,137.199951 669.200806,140.612610 
z"/>
<path fill="#781D7E" opacity="1.000000" stroke="none" 
	d="
M720.264221,237.988312 
	C720.433167,237.655243 720.917603,237.318115 721.709229,236.965149 
	C721.537476,237.294296 721.058533,237.639282 720.264221,237.988312 
z"/>
<path fill="#781D7E" opacity="1.000000" stroke="none" 
	d="
M722.263855,236.987762 
	C722.434509,236.654755 722.920227,236.317032 723.713745,235.962448 
	C723.540710,236.291412 723.059753,236.637238 722.263855,236.987762 
z"/>
<path fill="#781D7E" opacity="1.000000" stroke="none" 
	d="
M724.251953,235.973358 
	C724.435425,235.682770 724.927002,235.367783 725.722900,235.021576 
	C725.538147,235.309891 725.049072,235.629425 724.251953,235.973358 
z"/>
</svg>